<svg width="20" height="20" fill="none" xmlns="http://www.w3.org/2000/svg"><path d="M2.5 5.652c0 .492.244.953.652 1.229l4.984 3.377a3.334 3.334 0 003.74 0l4.972-3.37A1.48 1.48 0 0017.5 5.66v-.008c0-.82-.665-1.485-1.485-1.485H3.985c-.82 0-1.485.665-1.485 1.485z" stroke="#fff" stroke-width="1.5" stroke-linecap="round" stroke-linejoin="round"/><path d="M2.5 5.833v8.334c0 .92.746 1.666 1.667 1.666h11.666c.921 0 1.667-.745 1.667-1.666V5.833M2.988 15.345l5.117-5.117m3.795.006l5.109 5.108" stroke="#fff" stroke-width="1.5" stroke-linecap="round" stroke-linejoin="round"/></svg>